<?xml version="1.0" encoding="utf-8"?>
<!-- Generator: Adobe Illustrator 22.1.0, SVG Export Plug-In . SVG Version: 6.00 Build 0)  -->
<svg version="1.1" xmlns="http://www.w3.org/2000/svg" xmlns:xlink="http://www.w3.org/1999/xlink" x="0px" y="0px"
	 viewBox="0 0 273.1 271.55" style="enable-background:new 0 0 273.1 271.55;" xml:space="preserve">
<style type="text/css">
	.st0{display:none;}
	.st1{display:inline;fill:#FFFFFF;}
	.st2{fill:#444244;}
	.st3{fill:#FFFFFF;}
</style>
<g id="Background" class="st0">
	<rect x="-44.04" y="-46.41" class="st1" width="360" height="360"/>
</g>
<g id="Letter">
	<circle id="Circle" class="st2" cx="135.96" cy="133.97" r="131"/>
	<g>
		<g>
			<path class="st3" d="M17.84,108.03C18.12,108.2,17.55,107.84,17.84,108.03L17.84,108.03z"/>
		</g>
		<g>
			<path class="st3" d="M223.46,34.55c0-16.62-13.64-31.58-32.23-31.58c-36.2,0-80.58,83.82-92.48,142.95
				c-26.94,0-41.53-3.51-47.47-17.25c-0.95-0.21-3.89-1.58-4.78-2.04c-8.09-4.19-21.92-14.26-28.65-18.61
				c2.17,30.77,32.98,46.92,73.46,46.92h5.7c-0.99,6.41-1.49,12.59-1.49,18.28c0,20.9,9.67,34.91,25.79,34.91
				c9.67,0,17.85-8.55,25.54-21.37c-18.17,58.66-29.62,74.21-41.61,73.51s-14.43-12.24-14.43-17.95c0-7.12,6.45-12.35,17.11-14.72
				c0-7.36-3.72-8.07-11.16-8.07c-11.16,0-28.76,5.94-28.76,23.03c0,16.86,20.84,31.62,43.45,28.59
				c12.82-1.72,30.93-15.53,41.1-39.75c23.55-56.75,26.53-68.62,26.53-73.61c0-3.9-3.71-5.03-8.13-5.2c-0.01,0-0.01,0-0.02,0
				c-0.04,0-0.1,0-0.14,0c-0.37-0.01-0.75-0.02-1.13-0.02c-0.06,0-0.11,0-0.17,0c-4.72-0.03-14.07,0.11-17.59,0.03
				c-0.8-0.02-1.63-0.03-2.37,0.29c-1.56,0.67-2.18,2.52-2.63,4.16c2.87,1.78,5.22,4.34,6.87,7.29c-8.43,17.2-24,35.43-28.73,32.15
				c-3.62-2.51-4.96-7.6-4.96-15.43c0-7.84,1.49-18.05,4.22-29.45C192.22,137.13,223.46,78.24,223.46,34.55z M197.67,13.65
				c4.99-1.02,4.46,6.89,4.46,14.25c0,29.44-24.05,94.75-75.13,113.03C141.14,89.64,175.09,18.29,197.67,13.65z"/>
		</g>
	</g>
</g>
</svg>
