<svg xmlns="http://www.w3.org/2000/svg" viewBox="0 0 225 167.76"><defs><style>.cls-1{fill:#434345;}</style></defs><title>Gel Agency</title><g id="Layer_2" data-name="Layer 2"><g id="Grey_-fixed_-_heavy" data-name="Grey -fixed - heavy"><g id="Gel"><g id="_6" data-name="6"><path class="cls-1" d="M.05,65.62c.18.11-.18-.12,0,0Z"/><path class="cls-1" d="M128.49,19.73A19.94,19.94,0,0,0,108.35,0C85.74,0,58,52.36,50.58,89.29c-16.82,0-25.94-2.19-29.65-10.77a21.57,21.57,0,0,1-3-1.28C12.89,74.62,4.26,68.34.05,65.62c1.36,19.22,20.61,29.3,45.89,29.3H49.5a75.39,75.39,0,0,0-.93,11.42c0,13.06,6,21.81,16.11,21.81,6,0,11.15-5.34,15.95-13.35-11.35,36.64-18.5,46.35-26,45.91s-9-7.64-9-11.2c0-4.45,4-7.72,10.68-9.2,0-4.6-2.32-5-7-5-7,0-18,3.7-18,14.38s13,19.75,27.14,17.86c8-1.07,19.32-9.7,25.67-24.83,14.71-35.44,16.57-42.86,16.57-46,0-2.44-2.32-3.15-5.07-3.25h-.92c-3,0-8.79.07-11,0a3.54,3.54,0,0,0-1.49.18c-1,.42-1.36,1.57-1.64,2.6A12.52,12.52,0,0,1,85,100.8c-5.27,10.74-15,22.12-18,20.08-2.26-1.56-3.1-4.75-3.1-9.64a83,83,0,0,1,2.64-18.39C109,83.8,128.49,47,128.49,19.73ZM112.38,6.67c3.11-.63,2.79,4.31,2.79,8.9,0,18.4-15,59.18-46.93,70.6C77.07,54.14,98.27,9.57,112.38,6.67Z"/><path class="cls-1" d="M126.15,127.53H126c-12.31,0-22.25-7-22.25-17.38,0-15.27,9-40.36,21.31-53.66,4.1-4.54,9.31-7.71,16.57-7.71,8,0,16.89,3.78,16.89,14.81,0,12.7-16.1,43.38-35.52,43.38a15.57,15.57,0,0,1-4.41-.6c-.16,1.66-.32,3.17-.32,4.53,0,4.84,2.16,9.31,6.16,9.52,10.64.58,37.67-14.72,53.65-30.93,1.11-.15-1.31,5.26-1.89,5.75C169,101.18,143.59,127.53,126.15,127.53Zm-6.63-25.4c14.21-2.26,28.1-33.1,28.1-44.13,0-1.66.06-3.42-1.11-3.48C139.93,54.19,123.94,83.54,119.52,102.13Z"/><path class="cls-1" d="M158.55,115.28c0-27.81,36.31-115.17,59-115.17C221.37.11,225,4,225,7.67,225,46.4,201.59,75,176.23,95.59c-2.73,10.16-3.45,14.4-3.47,18.48,0,2.58,0,6.57,1.42,6.35,4.8-.72,13.67-12.74,16.73-18.13.32-.57,2.21.15,2.21,1.66,0,6.5-12.31,23.58-21.78,23.58C165,127.53,158.55,122.09,158.55,115.28Zm19.52-25.79C190.16,76.3,222.58,17.9,219.79,5.25c-1.49-6.76-23,33-33.93,62.27C184,72.36,179.65,85,178.07,89.49Z"/></g></g><polygon class="cls-1" points="193.32 143.01 95.51 143.01 98.02 136.55 195.83 136.55 193.32 143.01"/></g></g></svg>