<?xml version="1.0" encoding="utf-8"?>
<!-- Generator: Adobe Illustrator 22.1.0, SVG Export Plug-In . SVG Version: 6.00 Build 0)  -->
<svg version="1.1" xmlns="http://www.w3.org/2000/svg" xmlns:xlink="http://www.w3.org/1999/xlink" x="0px" y="0px"
	viewBox="0 0 230.31 172.18" style="enable-background:new 0 0 230.31 172.18;" xml:space="preserve">
<style type="text/css">
	.st0{display:none;}
	.st1{display:inline;fill:#FFFFFF;}
	.st2{fill:#444244;}
</style>
<g id="Background" class="st0">
	<rect x="-50.38" y="-96.43" class="st1" width="360" height="360"/>
</g>
<g id="Grey_-fixed_-_heavy">
	<g>
		<g id="Gel_9_">
			<g>
				<g id="_x36__8_">
					<g>
						<g>
							<path class="st2" d="M3.17,68.18C3.34,68.29,2.99,68.07,3.17,68.18L3.17,68.18z"/>
						</g>
						<g>
							<path class="st2" d="M131.6,22.29c0-10.38-8.52-19.73-20.13-19.73c-22.61,0-50.33,52.36-57.77,89.29
								c-16.83,0-25.94-2.19-29.65-10.77c-0.59-0.13-2.43-0.99-2.98-1.27C16.01,77.19,7.37,70.9,3.17,68.18
								c1.36,19.22,20.6,29.3,45.89,29.3h3.56c-0.62,4-0.93,7.86-0.93,11.42c0,13.05,6.04,21.8,16.11,21.8
								c6.04,0,11.15-5.34,15.95-13.35C72.4,154,65.24,163.72,57.76,163.28c-7.49-0.44-9.01-7.65-9.01-11.21
								c0-4.45,4.03-7.71,10.69-9.2c0-4.6-2.32-5.04-6.97-5.04c-6.97,0-17.97,3.71-17.97,14.39c0,10.53,13.02,19.75,27.14,17.86
								c8.01-1.07,19.32-9.7,25.67-24.83c14.71-35.45,16.57-42.86,16.57-45.98c0-2.44-2.32-3.14-5.08-3.25c-0.01,0-0.01,0-0.01,0
								c-0.03,0-0.06,0-0.09,0c-0.23-0.01-0.47-0.01-0.71-0.01c-0.04,0-0.07,0-0.11,0c-2.95-0.02-8.79,0.07-10.99,0.02
								c-0.5-0.01-1.02-0.02-1.48,0.18c-0.97,0.42-1.36,1.57-1.64,2.6c1.79,1.11,3.26,2.71,4.29,4.56
								c-5.27,10.74-14.99,22.13-17.95,20.08c-2.26-1.57-3.1-4.75-3.1-9.64c0-4.9,0.93-11.27,2.63-18.39
								C112.09,86.37,131.6,49.58,131.6,22.29z M115.49,9.24c3.11-0.64,2.79,4.3,2.79,8.9c0,18.39-15.02,59.18-46.93,70.6
								C80.18,56.7,101.39,12.13,115.49,9.24z"/>
						</g>
					</g>
					<g>
						<g>
							<path class="st2" d="M129.27,130.09h-0.16c-12.31,0-22.25-6.95-22.25-17.38c0-15.27,9-40.36,21.31-53.66
								c4.1-4.54,9.31-7.71,16.57-7.71c8.05,0,16.89,3.78,16.89,14.81c0,12.7-16.1,43.38-35.51,43.38c-1.42,0-2.84-0.15-4.42-0.6
								c-0.16,1.66-0.32,3.17-0.32,4.53c0,4.84,2.16,9.31,6.16,9.52c10.65,0.57,37.67-14.73,53.66-30.93
								c1.11-0.15-1.31,5.26-1.89,5.74C172.14,103.75,146.71,130.09,129.27,130.09z M122.64,104.7c14.2-2.27,28.09-33.1,28.09-44.14
								c0-1.66,0.07-3.42-1.11-3.48C143.05,56.75,127.06,86.11,122.64,104.7z"/>
						</g>
						<g>
							<path class="st2" d="M161.67,117.85c0-27.81,36.3-115.18,59.03-115.18c3.79,0,7.42,3.93,7.42,7.56
								c0,38.73-23.41,67.37-48.77,87.92c-2.73,10.16-3.45,14.4-3.47,18.48c-0.01,2.57-0.02,6.57,1.42,6.35
								c4.8-0.72,13.67-12.75,16.73-18.14c0.32-0.57,2.21,0.15,2.21,1.66c0,6.5-12.31,23.58-21.78,23.58
								C168.14,130.09,161.67,124.65,161.67,117.85z M181.19,92.06c12.09-13.19,44.51-71.6,41.72-84.25
								c-1.49-6.76-23.04,32.95-33.93,62.27C187.08,74.92,182.77,87.52,181.19,92.06z"/>
						</g>
					</g>
				</g>
			</g>
		</g>
		<polygon class="st2" points="196.44,145.58 98.62,145.58 101.14,139.11 198.95,139.11 		"/>
	</g>
</g>
</svg>