<svg xmlns="http://www.w3.org/2000/svg" xmlns:xlink="http://www.w3.org/1999/xlink" version="1.1" x="0px" y="0px" viewBox="0 0 30 37.5" enable-background="new 0 0 30 30" xml:space="preserve"><path d="M28.019,25.897l-5.166-5.166c1.615-2.077,2.501-4.61,2.501-7.284c0-3.18-1.239-6.169-3.487-8.418  c-2.249-2.249-5.238-3.487-8.418-3.487c-3.181,0-6.17,1.238-8.419,3.487c-2.248,2.249-3.487,5.238-3.487,8.418  s1.239,6.169,3.487,8.418c2.249,2.249,5.238,3.487,8.419,3.487c2.673,0,5.206-0.885,7.283-2.5l5.166,5.166  c0.293,0.293,0.677,0.439,1.061,0.439s0.768-0.146,1.061-0.439C28.604,27.433,28.604,26.482,28.019,25.897z M7.15,19.745  c-1.682-1.682-2.608-3.918-2.608-6.297S5.469,8.833,7.15,7.151c1.683-1.682,3.919-2.608,6.298-2.608  c2.378,0,4.614,0.926,6.297,2.608c1.682,1.682,2.608,3.918,2.608,6.297s-0.927,4.615-2.608,6.297  c-1.683,1.682-3.919,2.608-6.297,2.608C11.069,22.353,8.833,21.426,7.15,19.745z"/><text x="0" y="45" fill="#000000" font-size="5px" font-weight="bold" font-family="'Helvetica Neue', Helvetica, Arial-Unicode, Arial, Sans-serif">Created by Eddy Wong</text><text x="0" y="50" fill="#000000" font-size="5px" font-weight="bold" font-family="'Helvetica Neue', Helvetica, Arial-Unicode, Arial, Sans-serif">from the Noun Project</text></svg>